<svg width="20" height="20" viewBox="0 0 20 20" fill="none" xmlns="http://www.w3.org/2000/svg">
<path fill-rule="evenodd" clip-rule="evenodd" d="M3.96248 8.38248C4.24622 7.32259 4.80397 6.35608 5.57967 5.5801C6.35538 4.80411 7.32169 4.24601 8.38147 3.96189C9.44125 3.67778 10.5572 3.67766 11.617 3.96154C12.6768 4.24543 13.6433 4.80333 14.4191 5.57914L16.005 7.16498H13.3525C13.1867 7.16498 13.0278 7.23082 12.9105 7.34803C12.7933 7.46524 12.7275 7.62422 12.7275 7.78998C12.7275 7.95574 12.7933 8.11471 12.9105 8.23192C13.0278 8.34913 13.1867 8.41498 13.3525 8.41498H17.5125C17.6782 8.41498 17.8372 8.34913 17.9544 8.23192C18.0716 8.11471 18.1375 7.95574 18.1375 7.78998V3.62998C18.1375 3.46422 18.0716 3.30524 17.9544 3.18803C17.8372 3.07082 17.6782 3.00498 17.5125 3.00498C17.3467 3.00498 17.1878 3.07082 17.0705 3.18803C16.9533 3.30524 16.8875 3.46422 16.8875 3.62998V6.27998L15.3041 4.69664C14.3733 3.76535 13.2137 3.09555 11.9418 2.75456C10.67 2.41358 9.33084 2.41343 8.05895 2.75415C6.78706 3.09486 5.62728 3.76442 4.69622 4.69551C3.76517 5.6266 3.09565 6.78641 2.75498 8.05831C2.73375 8.13765 2.72836 8.22039 2.7391 8.30182C2.74985 8.38325 2.77653 8.46176 2.81762 8.53287C2.85871 8.60398 2.91341 8.66631 2.97858 8.71629C3.04376 8.76626 3.11814 8.80291 3.19748 8.82414C3.27682 8.84537 3.35957 8.85077 3.44099 8.84002C3.52242 8.82927 3.60093 8.80259 3.67204 8.7615C3.74316 8.72041 3.80548 8.66572 3.85546 8.60054C3.90544 8.53536 3.94208 8.46098 3.96332 8.38164L3.96248 8.38248ZM16.8025 11.1758C16.7232 11.1545 16.6405 11.149 16.5591 11.1597C16.4777 11.1704 16.3992 11.197 16.3281 11.238C16.2569 11.279 16.1946 11.3336 16.1446 11.3987C16.0946 11.4639 16.0579 11.5382 16.0366 11.6175C15.7529 12.6774 15.1952 13.6439 14.4195 14.4199C13.6438 15.1958 12.6774 15.7539 11.6177 16.0381C10.5579 16.3222 9.44197 16.3223 8.38213 16.0384C7.32229 15.7545 6.35585 15.1966 5.57998 14.4208L3.99498 12.835H6.64748C6.81324 12.835 6.97221 12.7691 7.08942 12.6519C7.20663 12.5347 7.27248 12.3757 7.27248 12.21C7.27248 12.0442 7.20663 11.8852 7.08942 11.768C6.97221 11.6508 6.81324 11.585 6.64748 11.585H2.48665C2.32089 11.585 2.16192 11.6508 2.04471 11.768C1.9275 11.8852 1.86165 12.0442 1.86165 12.21V16.37C1.86165 16.5357 1.9275 16.6947 2.04471 16.8119C2.16192 16.9291 2.32089 16.995 2.48665 16.995C2.65241 16.995 2.81138 16.9291 2.92859 16.8119C3.0458 16.6947 3.11165 16.5357 3.11165 16.37V13.72L4.69498 15.3033C5.6259 16.2346 6.78559 16.9044 8.05746 17.2453C9.32933 17.5862 10.6685 17.5863 11.9405 17.2455C13.2124 16.9047 14.3721 16.235 15.3031 15.3039C16.2341 14.3727 16.9036 13.2128 17.2441 11.9408C17.2869 11.7808 17.2644 11.6104 17.1816 11.4669C17.0988 11.3235 16.9624 11.2188 16.8025 11.1758Z" fill="currentColor"/>
</svg>
