<svg width="15" height="15" viewBox="0 0 15 15" fill="none" xmlns="http://www.w3.org/2000/svg">
<path d="M11.4727 3.52738C11.1659 3.22058 10.7501 3.04777 10.3163 3.04679C9.8824 3.0458 9.46581 3.2167 9.15765 3.52211L8.47738 4.23519C8.41438 4.30481 8.33808 4.3611 8.25297 4.40075C8.16786 4.44039 8.07568 4.4626 7.98185 4.46604C7.88803 4.46949 7.79446 4.45411 7.70667 4.42081C7.61889 4.38751 7.53866 4.33697 7.47073 4.27216C7.40279 4.20735 7.34852 4.1296 7.31112 4.04348C7.27372 3.95736 7.25394 3.86463 7.25296 3.77074C7.25198 3.67686 7.26981 3.58373 7.3054 3.49685C7.34099 3.40997 7.39363 3.33109 7.46019 3.26488L8.14457 2.54476L8.15629 2.53304C8.72769 1.96164 9.50269 1.64062 10.3108 1.64062C11.1189 1.64063 11.8939 1.96164 12.4653 2.53304C13.0367 3.10445 13.3577 3.87945 13.3577 4.68754C13.3577 5.49563 13.0367 6.27062 12.4653 6.84203L12.4536 6.85375L11.7334 7.53988C11.5975 7.66287 11.419 7.72793 11.2358 7.7212C11.0527 7.71447 10.8794 7.63649 10.7529 7.50387C10.6264 7.37125 10.5566 7.19447 10.5585 7.0112C10.5605 6.82792 10.6339 6.65264 10.7631 6.52269L11.4762 5.84242C11.7818 5.53449 11.9531 5.11803 11.9524 4.68417C11.9517 4.25031 11.7793 3.83438 11.4727 3.52738ZM6.52269 10.7649L5.84242 11.478C5.53473 11.7857 5.11741 11.9585 4.68226 11.9585C4.24712 11.9585 3.8298 11.7857 3.52211 11.478C3.21441 11.1703 3.04155 10.753 3.04155 10.3178C3.04155 9.88267 3.21441 9.46535 3.52211 9.15765L4.23519 8.47738C4.36445 8.34743 4.43785 8.17215 4.43977 7.98888C4.44169 7.8056 4.37196 7.62882 4.24545 7.4962C4.11894 7.36358 3.94565 7.2856 3.76249 7.27887C3.57932 7.27215 3.40078 7.33721 3.26488 7.46019L2.54476 8.14457L2.53304 8.15629C1.96164 8.72769 1.64062 9.50269 1.64062 10.3108C1.64063 11.1189 1.96164 11.8939 2.53304 12.4653C3.10445 13.0367 3.87945 13.3577 4.68754 13.3577C5.49563 13.3577 6.27062 13.0367 6.84203 12.4653L6.85375 12.4536L7.53988 11.7334C7.60645 11.6672 7.65908 11.5883 7.69467 11.5015C7.73026 11.4146 7.74809 11.3215 7.74711 11.2276C7.74613 11.1337 7.72636 11.041 7.68895 10.9548C7.65155 10.8687 7.59728 10.791 7.52935 10.7262C7.46141 10.6614 7.38118 10.6108 7.2934 10.5775C7.20561 10.5442 7.11205 10.5288 7.01822 10.5323C6.9244 10.5357 6.83221 10.5579 6.7471 10.5976C6.662 10.6372 6.58569 10.6935 6.52269 10.7631V10.7649ZM12.6563 8.67191H11.25C11.0636 8.67191 10.8847 8.74599 10.7529 8.87785C10.621 9.00971 10.5469 9.18856 10.5469 9.37504C10.5469 9.56152 10.621 9.74036 10.7529 9.87222C10.8847 10.0041 11.0636 10.0782 11.25 10.0782H12.6563C12.8428 10.0782 13.0216 10.0041 13.1535 9.87222C13.2853 9.74036 13.3594 9.56152 13.3594 9.37504C13.3594 9.18856 13.2853 9.00971 13.1535 8.87785C13.0216 8.74599 12.8428 8.67191 12.6563 8.67191ZM2.34379 6.32816H3.75004C3.93652 6.32816 4.11536 6.25408 4.24722 6.12222C4.37908 5.99036 4.45316 5.81152 4.45316 5.62504C4.45316 5.43856 4.37908 5.25971 4.24722 5.12785C4.11536 4.99599 3.93652 4.92191 3.75004 4.92191H2.34379C2.15731 4.92191 1.97846 4.99599 1.8466 5.12785C1.71474 5.25971 1.64066 5.43856 1.64066 5.62504C1.64066 5.81152 1.71474 5.99036 1.8466 6.12222C1.97846 6.25408 2.15731 6.32816 2.34379 6.32816ZM9.37504 10.5469C9.18856 10.5469 9.00971 10.621 8.87785 10.7529C8.74599 10.8847 8.67191 11.0636 8.67191 11.25V12.6563C8.67191 12.8428 8.74599 13.0216 8.87785 13.1535C9.00971 13.2853 9.18856 13.3594 9.37504 13.3594C9.56152 13.3594 9.74036 13.2853 9.87222 13.1535C10.0041 13.0216 10.0782 12.8428 10.0782 12.6563V11.25C10.0782 11.0636 10.0041 10.8847 9.87222 10.7529C9.74036 10.621 9.56152 10.5469 9.37504 10.5469ZM5.62504 4.45316C5.81152 4.45316 5.99036 4.37908 6.12222 4.24722C6.25408 4.11536 6.32816 3.93652 6.32816 3.75004V2.34379C6.32816 2.15731 6.25408 1.97846 6.12222 1.8466C5.99036 1.71474 5.81152 1.64066 5.62504 1.64066C5.43856 1.64066 5.25971 1.71474 5.12785 1.8466C4.99599 1.97846 4.92191 2.15731 4.92191 2.34379V3.75004C4.92191 3.93652 4.99599 4.11536 5.12785 4.24722C5.25971 4.37908 5.43856 4.45316 5.62504 4.45316Z" fill="currentColor"/>
</svg>
