<svg width="15" height="15" viewBox="0 0 15 15" fill="none" xmlns="http://www.w3.org/2000/svg">
<path d="M14.0625 3.28125V7.03125C14.0625 7.15557 14.0131 7.2748 13.9252 7.36271C13.8373 7.45061 13.7181 7.5 13.5938 7.5C13.4694 7.5 13.3502 7.45061 13.2623 7.36271C13.1744 7.2748 13.125 7.15557 13.125 7.03125V4.4127L8.30041 9.23789C8.25687 9.28147 8.20517 9.31605 8.14827 9.33964C8.09136 9.36323 8.03037 9.37537 7.96877 9.37537C7.90717 9.37537 7.84617 9.36323 7.78926 9.33964C7.73236 9.31605 7.68066 9.28147 7.63713 9.23789L5.62502 7.22519L1.73791 11.1129C1.64995 11.2008 1.53066 11.2503 1.40627 11.2503C1.28188 11.2503 1.16258 11.2008 1.07463 11.1129C0.986669 11.0249 0.937256 10.9056 0.937256 10.7812C0.937256 10.6569 0.986669 10.5376 1.07463 10.4496L5.29338 6.23086C5.33691 6.18728 5.38861 6.1527 5.44551 6.12911C5.50242 6.10552 5.56342 6.09338 5.62502 6.09338C5.68662 6.09338 5.74761 6.10552 5.80452 6.12911C5.86142 6.1527 5.91312 6.18728 5.95666 6.23086L7.96877 8.24356L12.4623 3.75H9.84377C9.71945 3.75 9.60022 3.70061 9.51231 3.61271C9.4244 3.5248 9.37502 3.40557 9.37502 3.28125C9.37502 3.15693 9.4244 3.0377 9.51231 2.94979C9.60022 2.86189 9.71945 2.8125 9.84377 2.8125H13.5938C13.7181 2.8125 13.8373 2.86189 13.9252 2.94979C14.0131 3.0377 14.0625 3.15693 14.0625 3.28125Z" fill="currentColor"/>
</svg>
