<svg width="15" height="15" viewBox="0 0 15 15" fill="none" xmlns="http://www.w3.org/2000/svg">
<path d="M14.0625 7.50002V11.25C14.0625 11.3743 14.0131 11.4936 13.9252 11.5815C13.8373 11.6694 13.7181 11.7188 13.5938 11.7188H9.84377C9.71945 11.7188 9.60022 11.6694 9.51231 11.5815C9.4244 11.4936 9.37502 11.3743 9.37502 11.25C9.37502 11.1257 9.4244 11.0065 9.51231 10.9186C9.60022 10.8307 9.71945 10.7813 9.84377 10.7813H12.4623L7.96877 6.28771L5.95666 8.30041C5.91312 8.34399 5.86142 8.37856 5.80452 8.40215C5.74761 8.42574 5.68662 8.43788 5.62502 8.43788C5.56342 8.43788 5.50242 8.42574 5.44551 8.40215C5.38861 8.37856 5.33691 8.34399 5.29338 8.30041L1.07463 4.08166C0.986669 3.9937 0.937256 3.87441 0.937256 3.75002C0.937256 3.62563 0.986669 3.50633 1.07463 3.41838C1.16258 3.33042 1.28188 3.28101 1.40627 3.28101C1.53066 3.28101 1.64995 3.33042 1.73791 3.41838L5.62502 7.30607L7.63713 5.29338C7.68066 5.24979 7.73236 5.21522 7.78926 5.19163C7.84617 5.16804 7.90717 5.1559 7.96877 5.1559C8.03037 5.1559 8.09136 5.16804 8.14827 5.19163C8.20517 5.21522 8.25687 5.24979 8.30041 5.29338L13.125 10.1186V7.50002C13.125 7.3757 13.1744 7.25647 13.2623 7.16856C13.3502 7.08065 13.4694 7.03127 13.5938 7.03127C13.7181 7.03127 13.8373 7.08065 13.9252 7.16856C14.0131 7.25647 14.0625 7.3757 14.0625 7.50002Z" fill="currentColor"/>
</svg>
