<svg width="15" height="15" viewBox="0 0 15 15" fill="none" xmlns="http://www.w3.org/2000/svg">
<path d="M12.6562 3.98438C12.6562 5.40813 10.3475 6.5625 7.5 6.5625C4.6525 6.5625 2.34375 5.40813 2.34375 3.98438M12.6562 3.98438C12.6562 2.56062 10.3475 1.40625 7.5 1.40625C4.6525 1.40625 2.34375 2.56062 2.34375 3.98438M12.6562 3.98438V11.0156C12.6562 12.4394 10.3475 13.5938 7.5 13.5938C4.6525 13.5938 2.34375 12.4394 2.34375 11.0156V3.98438M12.6562 3.98438V6.32812M2.34375 3.98438V6.32812M12.6562 6.32812V8.67188C12.6562 10.0956 10.3475 11.25 7.5 11.25C4.6525 11.25 2.34375 10.0956 2.34375 8.67188V6.32812M12.6562 6.32812C12.6562 7.75188 10.3475 8.90625 7.5 8.90625C4.6525 8.90625 2.34375 7.75188 2.34375 6.32812" stroke="currentColor" stroke-width="0.9375" stroke-linecap="round" stroke-linejoin="round"/>
</svg>
