<svg width="15" height="15" viewBox="0 0 15 15" fill="none" xmlns="http://www.w3.org/2000/svg">
<path d="M7.5 14.0625C5.75952 14.0625 4.09032 13.3711 2.85961 12.1404C1.6289 10.9097 0.9375 9.24048 0.9375 7.5C0.9375 5.75952 1.6289 4.09032 2.85961 2.85961C4.09032 1.6289 5.75952 0.9375 7.5 0.9375C9.24048 0.9375 10.9097 1.6289 12.1404 2.85961C13.3711 4.09032 14.0625 5.75952 14.0625 7.5C14.0625 9.24048 13.3711 10.9097 12.1404 12.1404C10.9097 13.3711 9.24048 14.0625 7.5 14.0625ZM7.5 15C9.48912 15 11.3968 14.2098 12.8033 12.8033C14.2098 11.3968 15 9.48912 15 7.5C15 5.51088 14.2098 3.60322 12.8033 2.1967C11.3968 0.790176 9.48912 0 7.5 0C5.51088 0 3.60322 0.790176 2.1967 2.1967C0.790176 3.60322 0 5.51088 0 7.5C0 9.48912 0.790176 11.3968 2.1967 12.8033C3.60322 14.2098 5.51088 15 7.5 15Z" fill="currentColor"/>
<path d="M7.5 12.1875C6.2568 12.1875 5.06451 11.6936 4.18544 10.8146C3.30636 9.93549 2.8125 8.7432 2.8125 7.5C2.8125 6.2568 3.30636 5.06451 4.18544 4.18544C5.06451 3.30636 6.2568 2.8125 7.5 2.8125C8.7432 2.8125 9.93549 3.30636 10.8146 4.18544C11.6936 5.06451 12.1875 6.2568 12.1875 7.5C12.1875 8.7432 11.6936 9.93549 10.8146 10.8146C9.93549 11.6936 8.7432 12.1875 7.5 12.1875ZM7.5 13.125C8.23869 13.125 8.97014 12.9795 9.65259 12.6968C10.3351 12.4141 10.9551 11.9998 11.4775 11.4775C11.9998 10.9551 12.4141 10.3351 12.6968 9.65259C12.9795 8.97014 13.125 8.23869 13.125 7.5C13.125 6.76131 12.9795 6.02986 12.6968 5.34741C12.4141 4.66495 11.9998 4.04485 11.4775 3.52252C10.9551 3.00019 10.3351 2.58586 9.65259 2.30318C8.97014 2.02049 8.23869 1.875 7.5 1.875C6.00816 1.875 4.57742 2.46763 3.52252 3.52252C2.46763 4.57742 1.875 6.00816 1.875 7.5C1.875 8.99184 2.46763 10.4226 3.52252 11.4775C4.57742 12.5324 6.00816 13.125 7.5 13.125Z" fill="currentColor"/>
<path d="M7.5 10.3125C6.75408 10.3125 6.03871 10.0162 5.51126 9.48874C4.98382 8.96129 4.6875 8.24592 4.6875 7.5C4.6875 6.75408 4.98382 6.03871 5.51126 5.51126C6.03871 4.98382 6.75408 4.6875 7.5 4.6875C8.24592 4.6875 8.96129 4.98382 9.48874 5.51126C10.0162 6.03871 10.3125 6.75408 10.3125 7.5C10.3125 8.24592 10.0162 8.96129 9.48874 9.48874C8.96129 10.0162 8.24592 10.3125 7.5 10.3125ZM7.5 11.25C8.49456 11.25 9.44839 10.8549 10.1517 10.1517C10.8549 9.44839 11.25 8.49456 11.25 7.5C11.25 6.50544 10.8549 5.55161 10.1517 4.84835C9.44839 4.14509 8.49456 3.75 7.5 3.75C6.50544 3.75 5.55161 4.14509 4.84835 4.84835C4.14509 5.55161 3.75 6.50544 3.75 7.5C3.75 8.49456 4.14509 9.44839 4.84835 10.1517C5.55161 10.8549 6.50544 11.25 7.5 11.25Z" fill="currentColor"/>
<circle cx="7.5" cy="7.5" r="1.40625" fill="currentColor"/>
</svg>
