<svg width="15" height="15" viewBox="0 0 15 15" fill="none" xmlns="http://www.w3.org/2000/svg">
<path d="M7.5 15C10.6069 15 13.125 13.125 13.125 9.84375C13.125 8.4375 12.6562 6.09375 10.7812 4.21875C11.0156 5.625 9.60938 6.09375 9.60938 6.09375C10.3125 3.75 8.4375 0.46875 5.625 0C5.95969 1.875 6.09375 3.75 3.75 5.625C2.57812 6.5625 1.875 8.18344 1.875 9.84375C1.875 13.125 4.39313 15 7.5 15ZM7.5 14.0625C5.94656 14.0625 4.6875 13.125 4.6875 11.4844C4.6875 10.7812 4.92188 9.60938 5.85938 8.67188C5.74219 9.375 6.5625 9.84375 6.5625 9.84375C6.21094 8.67188 7.03125 6.79688 8.4375 6.5625C8.26969 7.5 8.20312 8.4375 9.375 9.375C9.96094 9.84375 10.3125 10.6538 10.3125 11.4844C10.3125 13.125 9.05344 14.0625 7.5 14.0625Z" fill="currentColor"/>
</svg>
