<svg width="20" height="20" viewBox="0 0 20 20" fill="none" xmlns="http://www.w3.org/2000/svg">
<path d="M15.3125 10.6158L8.90169 17.0266C8.19842 17.7299 7.24459 18.125 6.25002 18.125C5.25546 18.125 4.30162 17.7299 3.59836 17.0266C2.89509 16.3234 2.5 15.3695 2.5 14.375C2.5 13.3804 2.89509 12.4266 3.59836 11.7233L12.715 2.60663C12.9472 2.37452 13.2229 2.19042 13.5263 2.06485C13.8296 1.93927 14.1548 1.87468 14.4831 1.87476C14.8114 1.87483 15.1365 1.93958 15.4399 2.0653C15.7432 2.19102 16.0187 2.37525 16.2509 2.60747C16.483 2.83969 16.6671 3.11535 16.7926 3.41872C16.9182 3.72209 16.9828 4.04722 16.9827 4.37556C16.9827 4.70389 16.9179 5.02899 16.7922 5.3323C16.6665 5.63561 16.4822 5.91119 16.25 6.1433L7.12669 15.2666C6.89001 15.4935 6.57366 15.6175 6.24581 15.6134C5.91797 15.6092 5.60488 15.4764 5.37402 15.2436C5.14317 15.0108 5.01303 14.6966 5.01166 14.3687C5.01029 14.0408 5.13779 13.7255 5.36669 13.4908L11.875 6.98247" stroke="currentColor" stroke-width="1.33333" stroke-linecap="round" stroke-linejoin="round"/>
</svg>
