<svg width="20" height="20" viewBox="0 0 20 20" fill="none" xmlns="http://www.w3.org/2000/svg">
<path d="M18.1091 1.89082C17.6989 1.48066 17.1426 1.25024 16.5625 1.25024C15.9824 1.25024 15.426 1.48066 15.0158 1.89082L14.0516 2.85499L17.145 5.94832L18.1091 4.98415C18.5193 4.57393 18.7497 4.01758 18.7497 3.43749C18.7497 2.85739 18.5193 2.30104 18.1091 1.89082ZM16.2608 6.83249L13.1675 3.73915L3.04247 13.8642C2.52818 14.3782 2.15012 15.0123 1.94247 15.7092L1.2758 17.9467C1.24361 18.0546 1.24121 18.1693 1.26885 18.2785C1.29649 18.3877 1.35314 18.4875 1.43281 18.5671C1.51248 18.6468 1.61221 18.7035 1.72143 18.7311C1.83066 18.7587 1.94533 18.7563 2.0533 18.7242L4.2908 18.0575C4.98766 17.8498 5.62177 17.4718 6.1358 16.9575L16.2608 6.83249Z" fill="currentColor"/>
</svg>
