<svg width="20" height="20" viewBox="0 0 20 20" fill="none" xmlns="http://www.w3.org/2000/svg">
<path d="M1.69657 10.2683C1.63907 10.0955 1.63907 9.90867 1.69657 9.73583C2.85241 6.25833 6.13324 3.75 9.99991 3.75C13.8649 3.75 17.1441 6.25583 18.3024 9.73167C18.3607 9.90417 18.3607 10.0908 18.3024 10.2642C17.1474 13.7417 13.8666 16.25 9.99991 16.25C6.13491 16.25 2.85491 13.7442 1.69657 10.2683Z" stroke="currentColor" stroke-width="1.25" stroke-linecap="round" stroke-linejoin="round"/>
<path d="M12.5 10C12.5 10.663 12.2366 11.2989 11.7678 11.7678C11.2989 12.2366 10.663 12.5 10 12.5C9.33696 12.5 8.70107 12.2366 8.23223 11.7678C7.76339 11.2989 7.5 10.663 7.5 10C7.5 9.33696 7.76339 8.70107 8.23223 8.23223C8.70107 7.76339 9.33696 7.5 10 7.5C10.663 7.5 11.2989 7.76339 11.7678 8.23223C12.2366 8.70107 12.5 9.33696 12.5 10Z" stroke="currentColor" stroke-width="1.25" stroke-linecap="round" stroke-linejoin="round"/>
</svg>
