<svg width="20" height="20" viewBox="0 0 20 20" fill="none" xmlns="http://www.w3.org/2000/svg">
<path d="M17.5 3.125V6.25C17.5 6.41576 17.4342 6.57473 17.3169 6.69194C17.1997 6.80915 17.0408 6.875 16.875 6.875C16.7092 6.875 16.5503 6.80915 16.4331 6.69194C16.3158 6.57473 16.25 6.41576 16.25 6.25V3.75H13.75C13.5842 3.75 13.4253 3.68415 13.3081 3.56694C13.1908 3.44973 13.125 3.29076 13.125 3.125C13.125 2.95924 13.1908 2.80027 13.3081 2.68306C13.4253 2.56585 13.5842 2.5 13.75 2.5H16.875C17.0408 2.5 17.1997 2.56585 17.3169 2.68306C17.4342 2.80027 17.5 2.95924 17.5 3.125ZM6.25 16.25H3.75V13.75C3.75 13.5842 3.68415 13.4253 3.56694 13.3081C3.44973 13.1908 3.29076 13.125 3.125 13.125C2.95924 13.125 2.80027 13.1908 2.68306 13.3081C2.56585 13.4253 2.5 13.5842 2.5 13.75V16.875C2.5 17.0408 2.56585 17.1997 2.68306 17.3169C2.80027 17.4342 2.95924 17.5 3.125 17.5H6.25C6.41576 17.5 6.57473 17.4342 6.69194 17.3169C6.80915 17.1997 6.875 17.0408 6.875 16.875C6.875 16.7092 6.80915 16.5503 6.69194 16.4331C6.57473 16.3158 6.41576 16.25 6.25 16.25ZM16.875 13.125C16.7092 13.125 16.5503 13.1908 16.4331 13.3081C16.3158 13.4253 16.25 13.5842 16.25 13.75V16.25H13.75C13.5842 16.25 13.4253 16.3158 13.3081 16.4331C13.1908 16.5503 13.125 16.7092 13.125 16.875C13.125 17.0408 13.1908 17.1997 13.3081 17.3169C13.4253 17.4342 13.5842 17.5 13.75 17.5H16.875C17.0408 17.5 17.1997 17.4342 17.3169 17.3169C17.4342 17.1997 17.5 17.0408 17.5 16.875V13.75C17.5 13.5842 17.4342 13.4253 17.3169 13.3081C17.1997 13.1908 17.0408 13.125 16.875 13.125ZM3.125 6.875C3.29076 6.875 3.44973 6.80915 3.56694 6.69194C3.68415 6.57473 3.75 6.41576 3.75 6.25V3.75H6.25C6.41576 3.75 6.57473 3.68415 6.69194 3.56694C6.80915 3.44973 6.875 3.29076 6.875 3.125C6.875 2.95924 6.80915 2.80027 6.69194 2.68306C6.57473 2.56585 6.41576 2.5 6.25 2.5H3.125C2.95924 2.5 2.80027 2.56585 2.68306 2.68306C2.56585 2.80027 2.5 2.95924 2.5 3.125V6.25C2.5 6.41576 2.56585 6.57473 2.68306 6.69194C2.80027 6.80915 2.95924 6.875 3.125 6.875ZM6.25 5.625H13.75C13.9158 5.625 14.0747 5.69085 14.1919 5.80806C14.3092 5.92527 14.375 6.08424 14.375 6.25V13.75C14.375 13.9158 14.3092 14.0747 14.1919 14.1919C14.0747 14.3092 13.9158 14.375 13.75 14.375H6.25C6.08424 14.375 5.92527 14.3092 5.80806 14.1919C5.69085 14.0747 5.625 13.9158 5.625 13.75V6.25C5.625 6.08424 5.69085 5.92527 5.80806 5.80806C5.92527 5.69085 6.08424 5.625 6.25 5.625ZM6.875 13.125H13.125V6.875H6.875V13.125Z" fill="currentColor"/>
</svg>
