<svg width="20" height="20" viewBox="0 0 20 20" fill="none" xmlns="http://www.w3.org/2000/svg">
<path d="M16.5625 15.6251C16.5625 16.0356 16.4727 16.4411 16.2994 16.8132C16.126 17.1853 15.8733 17.5149 15.559 17.779C15.2446 18.043 14.8763 18.235 14.4799 18.3416C14.0835 18.4481 13.6685 18.4666 13.2642 18.3956C12.8598 18.3247 12.4759 18.1662 12.1394 17.9311C11.8029 17.696 11.5219 17.3901 11.3162 17.0349C11.1104 16.6796 10.985 16.2837 10.9486 15.8748C10.9122 15.4659 10.9657 15.054 11.1055 14.668L6.96484 12.0079C6.56938 12.3958 6.06817 12.6583 5.5241 12.7624C4.98002 12.8666 4.41731 12.8077 3.90656 12.5933C3.3958 12.3788 2.95974 12.0183 2.6531 11.557C2.34645 11.0956 2.18286 10.554 2.18286 10.0001C2.18286 9.44611 2.34645 8.90449 2.6531 8.44316C2.95974 7.98182 3.3958 7.62132 3.90656 7.40686C4.41731 7.19241 4.98002 7.13356 5.5241 7.23771C6.06817 7.34185 6.56938 7.60434 6.96484 7.99225L11.1055 5.336C10.8684 4.68447 10.8796 3.96842 11.1371 3.32468C11.3946 2.68093 11.8802 2.15463 12.5013 1.84633C13.1223 1.53803 13.8351 1.46936 14.5036 1.65343C15.172 1.8375 15.7492 2.26141 16.1248 2.84416C16.5005 3.42691 16.6482 4.12763 16.5399 4.81244C16.4315 5.49725 16.0746 6.11813 15.5374 6.55643C15.0002 6.99473 14.3204 7.21973 13.6277 7.18844C12.9351 7.15714 12.2783 6.87174 11.7828 6.38678L7.64218 9.04693C7.86596 9.66533 7.86596 10.3426 7.64218 10.961L11.7828 13.6212C12.1781 13.2342 12.6788 12.9725 13.2221 12.8687C13.7654 12.7649 14.3273 12.8236 14.8375 13.0374C15.3476 13.2513 15.7833 13.6109 16.0902 14.0711C16.397 14.5314 16.5613 15.0719 16.5625 15.6251Z" fill="currentColor"/>
</svg>
