<svg width="20" height="20" viewBox="0 0 20 20" fill="none" xmlns="http://www.w3.org/2000/svg">
<path fill-rule="evenodd" clip-rule="evenodd" d="M3.96241 8.38254C4.24614 7.32265 4.8039 6.35614 5.5796 5.58016C6.3553 4.80417 7.32161 4.24607 8.3814 3.96195C9.44118 3.67784 10.5571 3.67772 11.6169 3.96161C12.6768 4.2455 13.6432 4.80339 14.4191 5.5792L16.0049 7.16504H13.3524C13.1866 7.16504 13.0277 7.23089 12.9105 7.3481C12.7933 7.46531 12.7274 7.62428 12.7274 7.79004C12.7274 7.9558 12.7933 8.11477 12.9105 8.23198C13.0277 8.34919 13.1866 8.41504 13.3524 8.41504H17.5124C17.6782 8.41504 17.8371 8.34919 17.9543 8.23198C18.0716 8.11477 18.1374 7.9558 18.1374 7.79004V3.63004C18.1374 3.46428 18.0716 3.30531 17.9543 3.1881C17.8371 3.07089 17.6782 3.00504 17.5124 3.00504C17.3466 3.00504 17.1877 3.07089 17.0705 3.1881C16.9533 3.30531 16.8874 3.46428 16.8874 3.63004V6.28004L15.3041 4.6967C14.3732 3.76542 13.2136 3.09561 11.9418 2.75462C10.6699 2.41364 9.33076 2.4135 8.05887 2.75421C6.78698 3.09492 5.6272 3.76449 4.69615 4.69558C3.76509 5.62667 3.09557 6.78647 2.75491 8.05837C2.73368 8.13771 2.72828 8.22046 2.73903 8.30188C2.74978 8.38331 2.77646 8.46182 2.81755 8.53293C2.85864 8.60405 2.91333 8.66637 2.97851 8.71635C3.04368 8.76632 3.11807 8.80297 3.19741 8.8242C3.27675 8.84543 3.35949 8.85083 3.44092 8.84008C3.52234 8.82933 3.60085 8.80265 3.67197 8.76156C3.74308 8.72047 3.80541 8.66578 3.85538 8.6006C3.90536 8.53543 3.94201 8.46104 3.96324 8.3817L3.96241 8.38254ZM16.8024 11.1759C16.7231 11.1546 16.6404 11.1491 16.559 11.1598C16.4776 11.1704 16.3991 11.197 16.328 11.238C16.2569 11.2791 16.1945 11.3337 16.1445 11.3988C16.0945 11.4639 16.0578 11.5382 16.0366 11.6175C15.7528 12.6774 15.1951 13.6439 14.4194 14.4199C13.6437 15.1959 12.6774 15.754 11.6176 16.0381C10.5578 16.3222 9.4419 16.3224 8.38205 16.0385C7.32221 15.7546 6.35577 15.1967 5.57991 14.4209L3.99491 12.835H6.64741C6.81317 12.835 6.97214 12.7692 7.08935 12.652C7.20656 12.5348 7.27241 12.3758 7.27241 12.21C7.27241 12.0443 7.20656 11.8853 7.08935 11.7681C6.97214 11.6509 6.81317 11.585 6.64741 11.585H2.48657C2.32081 11.585 2.16184 11.6509 2.04463 11.7681C1.92742 11.8853 1.86157 12.0443 1.86157 12.21V16.37C1.86157 16.5358 1.92742 16.6948 2.04463 16.812C2.16184 16.9292 2.32081 16.995 2.48657 16.995C2.65233 16.995 2.8113 16.9292 2.92851 16.812C3.04572 16.6948 3.11157 16.5358 3.11157 16.37V13.72L4.69491 15.3034C5.62582 16.2347 6.78551 16.9044 8.05738 17.2454C9.32926 17.5863 10.6685 17.5864 11.9404 17.2456C13.2123 16.9048 14.372 16.2351 15.3031 15.3039C16.2341 14.3727 16.9035 13.2128 17.2441 11.9409C17.2868 11.7809 17.2644 11.6104 17.1815 11.467C17.0987 11.3235 16.9624 11.2188 16.8024 11.1759Z" fill="currentColor"/>
</svg>
